<svg width="48" height="48" viewBox="0 0 48 48" fill="none" xmlns="http://www.w3.org/2000/svg">
<path fill-rule="evenodd" clip-rule="evenodd" d="M34.3443 8.4141C34.4491 10.1841 31.1513 15.3954 31.1513 15.3954C29.1565 6.85698 18.5366 0.600098 18.5366 0.600098C18.5366 0.600098 21.0498 3.58727 15.6993 12.3276C10.3489 21.0685 12.7495 26.5236 12.7495 26.5236H12.7534C13.9122 30.7634 18.6016 33.9377 24.2189 33.9377C29.8362 33.9377 34.0201 30.5228 35.6844 26.5236H35.6889C39.141 18.8025 34.3443 8.4141 34.3443 8.4141Z" fill="#FBAE3A"/>
<path fill-rule="evenodd" clip-rule="evenodd" d="M19.3541 29.0297C19.3541 26.2896 24.176 20.6204 24.176 20.6204C24.176 20.6204 28.9985 26.2896 28.9985 29.0297C28.9985 31.7699 26.839 33.9914 24.176 33.9914C21.513 33.9914 19.3541 31.7699 19.3541 29.0297Z" fill="#EE3634"/>
<path opacity="0.2" fill-rule="evenodd" clip-rule="evenodd" d="M16.2554 31.4224C18.348 32.9808 21.1415 33.9381 24.2193 33.9381C29.836 33.9381 34.0199 30.5232 35.6849 26.524H35.6887C39.1414 18.8029 34.344 8.41451 34.344 8.41451C34.4489 10.1845 31.1511 15.3958 31.1511 15.3958C29.1569 6.85738 18.5364 0.599854 18.5364 0.599854C18.5364 0.599854 41.7151 23.9993 16.2554 31.4224Z" fill="#010202"/>
<path fill-rule="evenodd" clip-rule="evenodd" d="M3.56405 43.0102C3.11132 41.1841 3.64765 39.4779 4.76276 39.1999C5.87722 38.9219 7.14796 40.1772 7.60069 42.0033C8.05342 43.83 7.51709 45.5355 6.40198 45.8135C5.28752 46.0915 4.01678 44.8363 3.56405 43.0102Z" fill="#513A2B"/>
<path fill-rule="evenodd" clip-rule="evenodd" d="M4.68852 39.232C4.71424 39.2236 4.73611 39.2068 4.76247 39.1997L4.6853 39.2191L4.68852 39.232Z" fill="#FEFEFE"/>
<path fill-rule="evenodd" clip-rule="evenodd" d="M6.32499 45.8328L6.40216 45.8135C6.3758 45.8199 6.34814 45.8154 6.32178 45.8199L6.32499 45.8328Z" fill="#FEFEFE"/>
<path fill-rule="evenodd" clip-rule="evenodd" d="M44.3299 32.8425C43.8771 31.0164 42.0341 29.9037 40.2128 30.3578L4.76221 39.2C5.87731 38.922 7.14805 40.1773 7.60078 42.0034C8.05351 43.8301 7.51654 45.5356 6.40207 45.8136L41.8527 36.9714C43.6733 36.5173 44.7826 34.6686 44.3299 32.8425Z" fill="#B4814A"/>
<path opacity="0.2" fill-rule="evenodd" clip-rule="evenodd" d="M6.4021 45.8136L41.8527 36.9714L44.3299 32.8425L7.60081 42.0034L6.4021 45.8136Z" fill="#010202"/>
<path fill-rule="evenodd" clip-rule="evenodd" d="M44.2704 43.0102C44.7231 41.1841 44.1868 39.4779 43.0717 39.1999C41.9572 38.9219 40.6865 40.1772 40.2337 42.0033C39.781 43.83 40.3173 45.5355 41.4324 45.8135C42.5469 46.0915 43.8176 44.8363 44.2704 43.0102Z" fill="#513A2B"/>
<path fill-rule="evenodd" clip-rule="evenodd" d="M43.146 39.232C43.1203 39.2236 43.0984 39.2068 43.072 39.1997L43.1492 39.2191L43.146 39.232Z" fill="#FEFEFE"/>
<path fill-rule="evenodd" clip-rule="evenodd" d="M41.5094 45.8328L41.4323 45.8135C41.4586 45.8199 41.4863 45.8154 41.5126 45.8199L41.5094 45.8328Z" fill="#FEFEFE"/>
<path fill-rule="evenodd" clip-rule="evenodd" d="M3.50449 32.8425C3.95722 31.0164 5.8003 29.9037 7.62151 30.3578L43.0722 39.2C41.957 38.922 40.6863 40.1773 40.2336 42.0034C39.7808 43.8301 40.3178 45.5356 41.4323 45.8136L5.98165 36.9714C4.16108 36.5173 3.05176 34.6686 3.50449 32.8425Z" fill="#B4814A"/>
<path opacity="0.2" fill-rule="evenodd" clip-rule="evenodd" d="M41.4323 45.8136L5.98168 36.9714L3.50452 32.8425L40.2336 42.0034L41.4323 45.8136Z" fill="#010202"/>
<mask id="mask0_30_1254" style="mask-type:luminance" maskUnits="userSpaceOnUse" x="2" y="0" width="44" height="48">
<path d="M2.4375 47.4592V0.266846H45.3966V47.4592H2.4375Z" fill="white"/>
</mask>
<g mask="url(#mask0_30_1254)">
<path fill-rule="evenodd" clip-rule="evenodd" d="M43.334 43.4158C42.9918 44.7968 42.1539 45.5651 41.7095 45.5141C41.7025 45.5128 41.696 45.5096 41.6889 45.5083C41.6742 45.5057 41.6594 45.5057 41.6446 45.5031C41.5436 45.4702 41.4446 45.389 41.3565 45.2574C41.168 44.9749 41.0304 44.4853 41.0381 43.8738C41.042 43.568 41.0825 43.2326 41.1706 42.8765C41.1732 42.8649 41.1777 42.8553 41.1803 42.8436C41.2214 42.685 41.269 42.5289 41.3243 42.3799C41.3378 42.3437 41.3539 42.3128 41.368 42.2779C41.4156 42.1593 41.4658 42.0432 41.5224 41.9335C41.5455 41.8877 41.5713 41.8471 41.5957 41.8032C41.6459 41.7135 41.6986 41.6258 41.7545 41.5445C41.7835 41.5013 41.8137 41.4613 41.8439 41.422C41.905 41.3413 41.9687 41.2659 42.0343 41.1969C42.06 41.1698 42.0857 41.1401 42.1115 41.1149C42.1455 41.0827 42.179 41.0556 42.2124 41.0279C42.2516 40.995 42.2909 40.9634 42.3288 40.9369C42.3584 40.9163 42.3873 40.8995 42.4163 40.8827C42.4574 40.8589 42.4979 40.8369 42.5372 40.8214C42.5629 40.8105 42.5873 40.8034 42.6118 40.7963C42.6491 40.7853 42.6844 40.7782 42.7185 40.7757C42.752 40.7731 42.7848 40.7724 42.815 40.7776C42.8278 40.7827 42.8439 40.7898 42.8549 40.7937C42.8606 40.7956 42.8677 40.7944 42.8735 40.7963C43.2915 40.9537 43.6774 42.0315 43.334 43.4158ZM24.7881 41.3046C24.5598 41.1014 24.2402 41.0098 23.918 41.0878L6.21452 36.6719C5.58365 36.5152 5.05182 36.1204 4.71677 35.5618C4.38173 35.0038 4.28333 34.3478 4.44089 33.7157C4.59716 33.0823 4.99008 32.5488 5.54699 32.2134C5.93092 31.9812 6.3605 31.8631 6.79715 31.8631C6.99393 31.8631 7.19265 31.887 7.38814 31.936L40.37 40.1622C40.3327 40.2093 40.3005 40.2635 40.2645 40.3119C40.2073 40.3899 40.1507 40.4693 40.0967 40.5518C40.0581 40.6112 40.0201 40.6699 39.9835 40.7311C39.898 40.8743 39.8156 41.0221 39.7404 41.1775C39.7275 41.2046 39.7166 41.233 39.7037 41.2601C39.6362 41.4046 39.5751 41.5542 39.5173 41.7084C39.4999 41.7561 39.4825 41.8038 39.4652 41.8522C39.4034 42.0328 39.3456 42.2173 39.298 42.4089C39.2491 42.6069 39.2131 42.8017 39.1835 42.9959C39.1764 43.0436 39.1693 43.0913 39.1636 43.1384C39.1398 43.3229 39.1218 43.5055 39.1147 43.6841C39.114 43.6925 39.1134 43.7009 39.1128 43.7093C39.1063 43.8951 39.1115 44.0763 39.1224 44.2543C39.125 44.2995 39.1288 44.3434 39.1327 44.3879C39.1468 44.5524 39.1668 44.7143 39.1951 44.8704C39.197 44.8794 39.1976 44.8897 39.1989 44.8994L24.7881 41.3046ZM8.63573 44.8994C8.63766 44.8878 8.6383 44.8755 8.64023 44.8639C8.66852 44.7091 8.68846 44.5491 8.70261 44.3859C8.70582 44.3427 8.70968 44.3001 8.71225 44.2569C8.72319 44.077 8.72833 43.8944 8.7219 43.7074C8.7219 43.7022 8.72061 43.6964 8.72061 43.6912C8.71354 43.51 8.69553 43.3242 8.6711 43.1378C8.66531 43.0907 8.65823 43.0436 8.65116 42.9959C8.62158 42.8024 8.58621 42.6069 8.53733 42.4089C8.48846 42.2128 8.42865 42.0244 8.36499 41.84C8.34827 41.7922 8.33155 41.7451 8.31354 41.6981C8.25116 41.5297 8.18364 41.3659 8.10904 41.2091C8.10325 41.1969 8.09811 41.1833 8.09232 41.1711C8.01258 41.0066 7.92448 40.8511 7.83316 40.7015C7.80743 40.6595 7.78171 40.6183 7.75534 40.5776C7.67239 40.4493 7.58557 40.3254 7.49425 40.2087C7.48332 40.1945 7.47367 40.1771 7.4621 40.1629L9.83829 39.5701L19.9186 42.0844L8.63573 44.8994ZM4.50005 43.4158C4.15665 42.0296 4.54378 40.9505 4.96243 40.7963C4.96822 40.7944 4.97465 40.795 4.97979 40.7937C4.9933 40.7892 5.00552 40.7827 5.01838 40.7782C5.05311 40.7718 5.09233 40.7737 5.13221 40.7782C5.15986 40.7815 5.18815 40.7866 5.21709 40.795C5.25503 40.8053 5.29426 40.8214 5.33478 40.8402C5.36307 40.8531 5.39201 40.8672 5.42159 40.884C5.4679 40.9111 5.51548 40.9453 5.56371 40.9821C5.59008 41.0021 5.61709 41.0214 5.6441 41.0446C5.69683 41.0904 5.75021 41.144 5.80359 41.2001C5.82738 41.2259 5.85182 41.2491 5.87625 41.2768C5.93156 41.3407 5.98558 41.4136 6.0396 41.4884C6.0621 41.5194 6.08461 41.5471 6.10648 41.5807C6.15985 41.66 6.21001 41.7497 6.26017 41.84C6.28075 41.878 6.30326 41.9122 6.3232 41.9522C6.37271 42.049 6.41709 42.156 6.46082 42.2638C6.47754 42.3057 6.49683 42.3424 6.51291 42.3857C6.57014 42.5398 6.62159 42.703 6.66467 42.8765C6.75278 43.2326 6.79265 43.5687 6.79651 43.8738C6.80551 44.6375 6.58815 45.2116 6.32898 45.4283C6.28333 45.4664 6.23638 45.4883 6.18944 45.5031C6.17464 45.5051 6.15664 45.5064 6.14506 45.5083C6.13799 45.5096 6.13156 45.5128 6.12448 45.5148C5.66982 45.5741 4.84153 44.7942 4.50005 43.4158ZM13.6839 26.9073C13.6666 26.8447 13.6434 26.7847 13.6151 26.728C13.4132 26.1758 11.8068 21.1755 16.5212 13.4737C19.453 8.68365 20.1418 5.46877 20.0923 3.44722C23.1926 5.68938 28.8601 10.4704 30.2125 16.2558C30.3006 16.6344 30.6073 16.924 30.9906 16.9885C31.37 17.0537 31.7572 16.8821 31.9655 16.5531C32.3256 15.9842 33.5784 13.962 34.4446 12.0385C35.5758 15.4804 37.0234 21.718 34.8427 26.6912C34.8253 26.7228 34.8086 26.7564 34.7951 26.7906C33.9269 28.8747 32.0665 31.1852 29.253 32.5108C29.7051 31.6664 29.963 30.6982 29.963 29.6687C29.963 26.659 25.4266 21.2393 24.9096 20.6317C24.5437 20.2008 23.8086 20.2008 23.4414 20.6317C22.925 21.2393 18.3894 26.659 18.3894 29.6687C18.3894 30.7324 18.6678 31.729 19.1482 32.5933C16.4286 31.44 14.3637 29.3946 13.6839 26.9073ZM20.3186 29.6687C20.3186 28.16 22.4524 24.9644 24.1758 22.7842C25.9 24.9632 28.0337 28.158 28.0337 29.6687C28.0337 31.5942 26.7109 33.2055 24.9572 33.5802C24.7135 33.5938 24.471 33.6099 24.2189 33.6099C23.9437 33.6099 23.6704 33.5976 23.399 33.5815C21.6427 33.208 20.3186 31.5954 20.3186 29.6687ZM40.4465 31.936C41.0774 31.7773 41.7307 31.8767 42.287 32.2134C42.8439 32.5488 43.2375 33.0823 43.3938 33.7157C43.5507 34.3478 43.4529 35.0038 43.1172 35.5618C42.7828 36.1204 42.2504 36.5152 41.6195 36.6719L38.1218 37.544C38.0851 37.5537 38.0523 37.5685 38.0176 37.5814L27.9154 35.0619L40.4465 31.936ZM43.5301 38.9734C43.4832 38.9534 43.4362 38.9334 43.3848 38.9205L43.3108 38.9018C43.3089 38.9012 43.3069 38.9005 43.305 38.8999H43.3044C43.3024 38.8992 43.3005 38.8992 43.2979 38.8986L41.9931 38.5735L42.0857 38.5503C43.2156 38.2684 44.17 37.5614 44.77 36.5597C45.3712 35.5586 45.5468 34.3827 45.2664 33.248C44.9848 32.1141 44.2806 31.1575 43.2819 30.5556C42.2832 29.9519 41.1102 29.7758 39.9803 30.0577L33.8871 31.5774C34.997 30.4518 35.9031 29.1185 36.5404 27.6194C36.5501 27.5994 36.5604 27.5794 36.5694 27.5594C40.1597 19.5274 35.4227 9.08745 35.2195 8.64688C35.0247 8.22503 34.5578 8.00378 34.1083 8.11473C33.6588 8.2289 33.3533 8.64688 33.3809 9.11067C33.4215 9.79247 32.5179 11.7508 31.4228 13.6956C28.3649 5.98287 19.4363 0.647105 19.0247 0.405215C18.6177 0.165261 18.091 0.241375 17.7881 0.602598C17.4858 0.963175 17.4749 1.47663 17.7784 1.8372C17.7977 1.86429 19.6749 4.62248 14.8769 12.461C9.5026 21.2426 11.6138 26.9421 11.8499 27.5143C12.2962 29.0804 13.1572 30.4847 14.3154 31.6696L7.85438 30.0577C5.51741 29.4771 3.14829 30.9072 2.56759 33.248C2.2872 34.3827 2.46276 35.5586 3.06405 36.5597C3.66405 37.5614 4.61838 38.2684 5.74892 38.5503L5.84024 38.5728L4.52964 38.8999C4.52771 38.9005 4.52578 38.9012 4.52385 38.9018L4.44989 38.9205C4.39523 38.9347 4.34443 38.9547 4.29491 38.9773C2.79652 39.5314 2.06662 41.6187 2.62739 43.8834C3.15408 46.0043 4.60809 47.4595 6.09104 47.4595C6.15792 47.4595 6.2248 47.4402 6.29169 47.4344C6.30326 47.435 6.31291 47.4395 6.32384 47.4395C6.39908 47.4395 6.47689 47.4312 6.55342 47.4118L6.63059 47.3931C6.63252 47.3925 6.63381 47.3931 6.63509 47.3925L23.9173 43.0817L41.1996 47.3925C41.2008 47.3931 41.2021 47.3925 41.2034 47.3931L41.2812 47.4118C41.3558 47.4305 41.4304 47.4389 41.5044 47.4389C41.5153 47.4389 41.525 47.4344 41.5359 47.4337C41.6047 47.4402 41.6742 47.4595 41.743 47.4595C43.2259 47.4595 44.6806 46.0043 45.2066 43.8834C45.7687 41.6142 45.0349 39.5236 43.5301 38.9734Z" fill="#2E2E30"/>
</g>
</svg>
