<svg width="20" height="20" viewBox="0 0 20 20" fill="none" xmlns="http://www.w3.org/2000/svg">
<path d="M10.4166 6.66663H9.16661V11.6666L13.1249 14.0416L13.7499 13.0166L10.4166 11.0416V6.66663ZM14.4474 1.5083L18.2866 4.71247L17.2199 5.99163L13.3783 2.78913L14.4474 1.5083ZM5.55244 1.5083L6.62078 2.7883L2.78078 5.99163L1.71411 4.71163L5.55244 1.5083ZM9.99994 3.3333C5.85828 3.3333 2.49994 6.69164 2.49994 10.8333C2.49994 14.975 5.85828 18.3333 9.99994 18.3333C14.1416 18.3333 17.4999 14.975 17.4999 10.8333C17.4999 6.69164 14.1416 3.3333 9.99994 3.3333ZM9.99994 16.6666C6.78328 16.6666 4.16661 14.05 4.16661 10.8333C4.16661 7.61663 6.78328 4.99997 9.99994 4.99997C13.2166 4.99997 15.8333 7.61663 15.8333 10.8333C15.8333 14.05 13.2166 16.6666 9.99994 16.6666Z" fill="#444444"/>
</svg>
