<svg width="20" height="20" viewBox="0 0 20 20" fill="none" xmlns="http://www.w3.org/2000/svg">
<path d="M10 4.99992C10.9167 4.99992 11.6667 5.74992 11.6667 6.66659C11.6667 7.58325 10.9167 8.33325 10 8.33325C9.08337 8.33325 8.33337 7.58325 8.33337 6.66659C8.33337 5.74992 9.08337 4.99992 10 4.99992ZM10 13.3333C12.25 13.3333 14.8334 14.4083 15 14.9999H5.00004C5.19171 14.3999 7.75837 13.3333 10 13.3333ZM10 3.33325C8.15837 3.33325 6.66671 4.82492 6.66671 6.66659C6.66671 8.50825 8.15837 9.99992 10 9.99992C11.8417 9.99992 13.3334 8.50825 13.3334 6.66659C13.3334 4.82492 11.8417 3.33325 10 3.33325ZM10 11.6666C7.77504 11.6666 3.33337 12.7833 3.33337 14.9999V16.6666H16.6667V14.9999C16.6667 12.7833 12.225 11.6666 10 11.6666Z" fill="#444444"/>
</svg>
